<svg width="8" height="7" viewBox="0 0 8 7" fill="none" xmlns="http://www.w3.org/2000/svg">
<path d="M3.5839 6.30768L3.58353 6.30736C2.54832 5.41212 1.7099 4.68653 1.12727 4.0072C0.547081 3.33073 0.25 2.733 0.25 2.09809C0.25 1.07227 1.09476 0.25 2.2 0.25C2.82463 0.25 3.42485 0.528502 3.81352 0.963786L4 1.17263L4.18648 0.963786C4.57515 0.528502 5.17537 0.25 5.8 0.25C6.90524 0.25 7.75 1.07227 7.75 2.09809C7.75 2.733 7.45292 3.33075 6.87268 4.00775C6.29033 4.6872 5.45253 5.41328 4.41811 6.30976L4.41682 6.31088L4.41627 6.31135L4.00062 6.66947L3.5839 6.30768Z" stroke="#232325" stroke-width="0.5"/>
</svg>
