<svg width="11" height="14" viewBox="0 0 11 14" fill="none" xmlns="http://www.w3.org/2000/svg">
<g clip-path="url(#clip0_5_133)">
<path d="M0.799072 5.44444H4.32471C4.97374 5.44444 5.49993 4.92211 5.49993 4.27777V0.777771" stroke="#8896E1"/>
<path fill-rule="evenodd" clip-rule="evenodd" d="M3.81826 0.569512C4.1856 0.204859 4.68381 0 5.20325 0H9.0256C10.1073 0 10.9843 0.870559 10.9843 1.94444V12.0556C10.9843 13.1294 10.1073 14 9.0256 14H1.97431C0.892562 14 0.015625 13.1294 0.015625 12.0556V5.14992C0.015625 4.63422 0.221985 4.13964 0.58931 3.77498L3.81826 0.569512ZM5.20325 1.55556C5.09936 1.55556 4.99971 1.59653 4.92629 1.66946L1.69732 4.87493C1.62385 4.94786 1.58258 5.04677 1.58258 5.14992V12.0556C1.58258 12.2703 1.75797 12.4444 1.97431 12.4444H9.0256C9.24191 12.4444 9.41733 12.2703 9.41733 12.0556V1.94444C9.41733 1.72967 9.24191 1.55556 9.0256 1.55556H5.20325Z" fill="#8896E1"/>
<path d="M3.93311 8.94447H7.06701M5.50006 7.38892V10.5" stroke="#8896E1" stroke-linecap="round" stroke-linejoin="round"/>
</g>
<defs>
<clipPath id="clip0_5_133">
<rect width="11" height="14" fill="white"/>
</clipPath>
</defs>
</svg>
