<svg width="13" height="15" viewBox="0 0 13 15" fill="none" xmlns="http://www.w3.org/2000/svg">
<g clip-path="url(#clip0_3_35)">
<path d="M10.5046 14.5891H2.35244C1.75786 14.5891 1.18764 14.3544 0.767221 13.9365C0.346789 13.5187 0.110596 12.952 0.110596 12.3611V2.6389C0.110596 2.04799 0.346789 1.48129 0.767221 1.06346C1.18764 0.645624 1.75786 0.410889 2.35244 0.410889H8.46657C8.62864 0.411035 8.7841 0.475144 8.89864 0.589129L12.5671 4.25927C12.6818 4.37312 12.7463 4.52756 12.7465 4.68867V12.3611C12.7465 12.952 12.5103 13.5187 12.0898 13.9365C11.6694 14.3544 11.0992 14.5891 10.5046 14.5891ZM2.35244 1.62617C2.08218 1.62617 1.82299 1.73287 1.63189 1.92279C1.44079 2.11271 1.33342 2.37031 1.33342 2.6389V12.3611C1.33342 12.6297 1.44079 12.8873 1.63189 13.0772C1.82299 13.2671 2.08218 13.3739 2.35244 13.3739H10.5046C10.7749 13.3739 11.0341 13.2671 11.2252 13.0772C11.4163 12.8873 11.5236 12.6297 11.5236 12.3611V4.91552L8.21386 1.62617H2.35244Z" fill="#8896E1"/>
<path d="M10.3008 13.9815H9.07801V8.91785H3.7791V13.9815H2.55627V8.71531C2.55627 8.44673 2.66364 8.18909 2.85474 7.99918C3.04584 7.80928 3.30504 7.70258 3.5753 7.70258H9.28182C9.55206 7.70258 9.8113 7.80928 10.0024 7.99918C10.1935 8.18909 10.3008 8.44673 10.3008 8.71531V13.9815Z" fill="#8896E1"/>
<path d="M6.81173 4.86687H3.59978C3.46168 4.86581 3.32514 4.83773 3.19796 4.78423C3.07077 4.73072 2.95544 4.65284 2.85855 4.55504C2.76165 4.45724 2.68509 4.34142 2.63323 4.21421C2.58137 4.087 2.55523 3.95089 2.55631 3.81363V1.01849H3.77913V3.6516H6.63238V1.01849H7.85521V3.81363C7.85627 3.95089 7.83018 4.087 7.77834 4.21421C7.72641 4.34142 7.64986 4.45724 7.55301 4.55504C7.45608 4.65284 7.34073 4.73072 7.21355 4.78423C7.08638 4.83773 6.94983 4.86581 6.81173 4.86687Z" fill="#8896E1"/>
</g>
<defs>
<clipPath id="clip0_3_35">
<rect width="12.8571" height="15" fill="white"/>
</clipPath>
</defs>
</svg>
