<svg width="15" height="15" viewBox="0 0 15 15" fill="none" xmlns="http://www.w3.org/2000/svg">
<g clip-path="url(#clip0_3_65)">
<path fill-rule="evenodd" clip-rule="evenodd" d="M5.78861 12.6036C5.92482 12.8589 6.06122 13.089 6.19161 13.2929C4.80631 12.9813 3.60426 12.1856 2.77247 11.0928C3.32143 10.7837 4.02454 10.4632 4.86981 10.2287C5.11005 11.171 5.44898 11.9668 5.78861 12.6036ZM6.83643 12.0448C6.54137 11.4917 6.24568 10.8009 6.03265 9.98235C6.49126 9.91427 6.98083 9.875 7.50008 9.875C8.01925 9.875 8.50882 9.91427 8.96735 9.98227C8.75432 10.8009 8.45863 11.4917 8.16357 12.0448C7.92702 12.4884 7.69135 12.8425 7.5 13.1016C7.30865 12.8425 7.07298 12.4884 6.83643 12.0448ZM5.71875 7.5C5.71875 7.96241 5.74986 8.40131 5.80472 8.81567C6.3338 8.73452 6.89944 8.6875 7.50008 8.6875C8.10064 8.6875 8.66628 8.73445 9.19528 8.81567C9.25014 8.40123 9.28125 7.96241 9.28125 7.5C9.28125 7.03759 9.25014 6.59877 9.19528 6.18433C8.66628 6.26548 8.10064 6.3125 7.50008 6.3125C6.89944 6.3125 6.3338 6.26548 5.80472 6.18433C5.74986 6.59869 5.71875 7.03759 5.71875 7.5ZM4.63961 5.93947C4.57065 6.42951 4.53125 6.95011 4.53125 7.5C4.53125 8.04989 4.57065 8.57049 4.63961 9.06053C3.63143 9.3312 2.79657 9.71287 2.1509 10.0801C1.77386 9.29993 1.5625 8.42467 1.5625 7.5C1.5625 6.57533 1.77386 5.7001 2.15089 4.91986C2.79649 5.28707 3.63136 5.66876 4.63961 5.93947ZM6.03265 5.01769C6.49126 5.08575 6.98083 5.125 7.50008 5.125C8.01925 5.125 8.50882 5.08576 8.96735 5.0177C8.75432 4.19919 8.45863 3.50836 8.16357 2.9552C7.92702 2.51166 7.69135 2.15749 7.5 1.89842C7.30865 2.15749 7.07298 2.51166 6.83643 2.95518C6.54137 3.50835 6.24568 4.19917 6.03265 5.01769ZM10.3604 5.93955C10.4293 6.42959 10.4688 6.95019 10.4688 7.5C10.4688 8.04989 10.4293 8.57041 10.3604 9.06045C11.3686 9.3312 12.2035 9.71287 12.8491 10.0801C13.2261 9.29985 13.4375 8.42459 13.4375 7.5C13.4375 6.57541 13.2261 5.70012 12.8491 4.9199C12.2035 5.28711 11.3686 5.6688 10.3604 5.93955ZM12.2275 3.90724C11.6785 4.21641 10.9754 4.53683 10.1302 4.77135C9.88996 3.82907 9.55105 3.03317 9.21143 2.39638C9.07518 2.14103 8.93878 1.91103 8.80839 1.70714C10.1937 2.01868 11.3958 2.81441 12.2275 3.90724ZM4.86981 4.77132C4.02459 4.5368 3.3215 4.21638 2.77248 3.9072C3.60426 2.81439 4.80631 2.01868 6.19153 1.70714C6.06123 1.91103 5.92482 2.14102 5.7886 2.39636C5.44898 3.03316 5.11005 3.82905 4.86981 4.77132ZM10.1302 10.2286C9.88996 11.171 9.55105 11.9668 9.21143 12.6036C9.07518 12.8589 8.93878 13.089 8.80839 13.2929C10.1937 12.9813 11.3958 12.1856 12.2276 11.0927C11.6786 10.7836 10.9755 10.4632 10.1302 10.2286ZM7.5 14.625C11.4351 14.625 14.625 11.4351 14.625 7.5C14.625 3.56497 11.4351 0.375 7.5 0.375C3.56497 0.375 0.375 3.56497 0.375 7.5C0.375 11.4351 3.56497 14.625 7.5 14.625Z" fill="#8896E1"/>
</g>
<defs>
<clipPath id="clip0_3_65">
<rect width="15" height="15" fill="white"/>
</clipPath>
</defs>
</svg>
